# xmcd CD database file
#
# Track frame offsets:
#	150
#	22750
#	41630
#	63600
#	89005
#	107100
#	124525
#	140300
#	161862
#	177730
#	198700
#	208395
#	223685
#	243652
#	262980
#	281835
#	301400
#
# Disc length: 4431 seconds
#
# Revision: 0
# Processed by: cddbd v1.5.1PL0 Copyright (c) Steve Scherf et al.
# Submitted via: CDex 1.51
#
DISCID=10114d11
DTITLE=Various Artist - BALLAD FOR YOU
DYEAR=1900
DGENRE=Vocal
TTITLE0=Whitney Houston/I Will Always Love You
TTITLE1=Madonna/Crazy For You
TTITLE2=Eric Clapton/Tears In Heaven
TTITLE3=George Michael/Careless Whisper
TTITLE4=Diana Ross/If We Hold On Together
TTITLE5=Mariah Carey/Without You
TTITLE6=Sheena Easton/For Your Eyes Only
TTITLE7=Michael Bolton/When A Man Loves A Woman
TTITLE8=Simply Red/If You Don't Know Me By Now
TTITLE9=Lionel Richie/Say You, Say Me
TTITLE10=Celine Dion and Peabo Bryson/Beauty And The Beast
TTITLE11=Rod Stewart/Sailing
TTITLE12=Boz Scaggs/We're All Alone
TTITLE13=Stevie Wonder/I Just Called To Say I Love You
TTITLE14=Paul McCartney/My Love
TTITLE15=Mariah Carey/I'll Be There
TTITLE16=Bryan Adams/(Everything I Do) I Do It For You
EXTD=
EXTT0=
EXTT1=
EXTT2=
EXTT3=
EXTT4=
EXTT5=
EXTT6=
EXTT7=
EXTT8=
EXTT9=
EXTT10=
EXTT11=
EXTT12=
EXTT13=
EXTT14=
EXTT15=
EXTT16=
PLAYORDER=
